<svg width="17" height="16" viewBox="0 0 17 16" fill="none" xmlns="http://www.w3.org/2000/svg">
<path d="M8.45824 0.199645L10.781 4.92153L15.9732 5.6789C16.0391 5.6887 16.1009 5.7167 16.1518 5.75975C16.2026 5.8028 16.2404 5.85919 16.261 5.92257C16.2815 5.98595 16.2839 6.05381 16.268 6.11849C16.252 6.18317 16.2183 6.24212 16.1707 6.28869L12.4143 9.96335L13.3012 15.1531C13.3126 15.2187 13.3054 15.2862 13.2804 15.3479C13.2555 15.4097 13.2137 15.4632 13.1599 15.5024C13.106 15.5416 13.0423 15.5649 12.9759 15.5697C12.9095 15.5746 12.843 15.5607 12.7841 15.5297L8.13972 13.0799L3.49534 15.5304C3.43645 15.5615 3.37001 15.5755 3.30357 15.5707C3.23714 15.566 3.17336 15.5427 3.1195 15.5035C3.06564 15.4643 3.02385 15.4108 2.99889 15.349C2.97392 15.2873 2.96678 15.2198 2.97828 15.1542L3.86518 9.96335L0.107701 6.28869C0.0600578 6.24212 0.0263625 6.18317 0.0104095 6.11849C-0.00554346 6.05381 -0.00312045 5.98595 0.0174057 5.92257C0.0379319 5.85919 0.0757459 5.8028 0.126589 5.75975C0.177433 5.7167 0.239286 5.6887 0.305183 5.6789L5.49742 4.92153L7.8212 0.199645C7.85018 0.139809 7.89543 0.0893457 7.95176 0.0540365C8.00809 0.0187272 8.07323 0 8.13972 0C8.2062 0 8.27134 0.0187272 8.32767 0.0540365C8.38401 0.0893457 8.42926 0.139809 8.45824 0.199645Z" fill="#3927CE"/>
</svg>
