<svg width="24" height="24" viewBox="0 0 24 24" fill="none" xmlns="http://www.w3.org/2000/svg">
<path d="M20.0704 3.99723C19.9134 3.83177 19.6521 3.82519 19.4866 3.98219C19.3212 4.13918 19.3146 4.40053 19.4716 4.56599C21.3452 6.53736 22.3764 9.12176 22.3764 11.8422C22.3764 17.6689 17.6346 22.4098 11.8069 22.4098C9.28836 22.4098 6.90531 21.5327 5.00334 19.9271L6.79516 19.8397C7.02266 19.8284 7.19846 19.6347 7.18718 19.4072C7.17589 19.1797 6.98317 19.002 6.75473 19.0152L3.98613 19.1496C3.75957 19.1609 3.5847 19.3517 3.59411 19.5783L3.70034 22.234C3.7088 22.4559 3.89212 22.6298 4.1121 22.6298H4.12902C4.35652 22.6204 4.5342 22.4286 4.52479 22.2011L4.45804 20.5466C6.5112 22.2848 9.08529 23.2353 11.8067 23.2353C18.0892 23.2353 23.2017 18.125 23.2017 11.8422C23.2017 8.90901 22.0895 6.12261 20.0692 3.99706L20.0704 3.99723Z" fill="#3927CE"/>
<path d="M1.23969 11.8425C1.23969 6.01577 5.98053 1.27493 11.8082 1.27493C13.8877 1.27493 15.8807 1.8719 17.6029 3.00471L15.7791 3.25853C15.5535 3.28956 15.3956 3.49826 15.4275 3.72388C15.4567 3.92976 15.6334 4.07925 15.8355 4.07925C15.8543 4.07925 15.8741 4.07831 15.8929 4.07548L18.6389 3.69288C18.8635 3.66185 19.0205 3.45503 18.9914 3.23035L18.6473 0.594354C18.6182 0.368732 18.4095 0.208907 18.1848 0.23899C17.9592 0.268132 17.7993 0.475895 17.8294 0.701522L18.0381 2.30155C16.1852 1.08882 14.0436 0.448632 11.809 0.448632C5.52552 0.449572 0.414062 5.56081 0.414062 11.8426C0.414062 14.3424 1.20845 16.7151 2.71166 18.7044C2.79251 18.8116 2.9166 18.868 3.04163 18.868C3.12812 18.868 3.21555 18.8407 3.2898 18.7843C3.47124 18.6471 3.50791 18.3876 3.37065 18.2062C1.97649 16.3617 1.23945 14.1609 1.23945 11.8418L1.23969 11.8425Z" fill="#3927CE"/>
<path d="M15.6285 7.43448L10.331 13.1719L7.83602 10.677C7.21556 10.0565 6.20591 10.0565 5.58543 10.677C5.2846 10.9778 5.11914 11.3774 5.11914 11.8023C5.11914 12.2272 5.2846 12.6267 5.58543 12.9276L9.25074 16.5929C9.55157 16.8937 9.95112 17.0592 10.376 17.0592H10.408C10.8386 17.0507 11.2531 16.8646 11.5455 16.5478L17.9664 9.59376C18.255 9.28164 18.4045 8.87552 18.3876 8.4506C18.3707 8.02568 18.1892 7.63272 17.8771 7.34503C17.2322 6.74993 16.2236 6.79051 15.6285 7.43448ZM17.3169 7.95153C17.4673 8.09066 17.5547 8.27963 17.5622 8.48362C17.5707 8.68762 17.4983 8.88317 17.3592 9.03359L10.9383 15.9876C10.7972 16.1399 10.5979 16.2292 10.3921 16.2339H10.3761C10.1712 16.2339 9.97938 16.154 9.8346 16.0092L6.16929 12.3439C6.02451 12.1991 5.94461 12.0064 5.94461 11.8024C5.94461 11.5975 6.02451 11.4057 6.16835 11.2609C6.31782 11.1114 6.5143 11.0372 6.71078 11.0372C6.90726 11.0372 7.1028 11.1114 7.25228 11.2609L10.051 14.0596C10.1309 14.1395 10.2409 14.1856 10.3508 14.1799C10.4627 14.1781 10.5699 14.1301 10.646 14.0474L16.235 7.99512C16.5217 7.68488 17.0068 7.66514 17.317 7.95188L17.3169 7.95153Z" fill="#3927CE"/>
</svg>
