<svg width="9" height="14" viewBox="0 0 9 14" fill="none" xmlns="http://www.w3.org/2000/svg">
<path fill-rule="evenodd" clip-rule="evenodd" d="M8.73479 9.09094C9.1094 9.49676 9.0841 10.1294 8.67828 10.504L5.17832 13.7348C4.79526 14.0884 4.20482 14.0884 3.82176 13.7348L0.321719 10.504C-0.084104 10.1294 -0.109414 9.49677 0.265188 9.09095C0.639789 8.68513 1.27245 8.65982 1.67827 9.03442L3.50003 10.716L3.50003 1C3.50003 0.447715 3.94775 -1.01632e-07 4.50003 -1.967e-07C5.05232 -2.91768e-07 5.50003 0.447715 5.50003 1L5.50003 10.716L7.32171 9.03443C7.72753 8.65982 8.36019 8.68513 8.73479 9.09094Z" fill="#3927CE"/>
</svg>
