<svg width="25" height="23" viewBox="0 0 25 23" fill="none" xmlns="http://www.w3.org/2000/svg">
<path d="M12.4981 9.07419C12.4013 9.07369 12.3063 9.048 12.2228 8.99972C12.0267 8.88801 7.4255 6.28158 7.4255 2.93045C7.42549 2.35019 7.59996 1.78299 7.92682 1.30074C8.25366 0.818486 8.71818 0.442891 9.26147 0.221558C9.80477 0.000224089 10.4024 -0.0568833 10.9786 0.057473C11.5548 0.171829 12.0837 0.452501 12.4981 0.863916C12.9131 0.453043 13.4421 0.172865 14.0184 0.0588025C14.5946 -0.0552604 15.1922 0.00191285 15.7355 0.223095C16.2788 0.444276 16.7435 0.819535 17.0709 1.30143C17.3982 1.78333 17.5735 2.35022 17.5745 2.93045C17.5745 6.28158 12.9733 8.88801 12.7772 8.98482C12.6938 9.03848 12.5975 9.06932 12.4981 9.07419ZM10.3936 1.12828C9.90842 1.12924 9.44313 1.31894 9.09862 1.65629C8.75411 1.99363 8.55813 2.45142 8.55317 2.93045C8.55317 5.20922 11.5703 7.26085 12.4981 7.84916C13.441 7.26085 16.4468 5.20922 16.4468 2.93045C16.4449 2.5281 16.3081 2.1377 16.0577 1.82026C15.8072 1.50281 15.4574 1.2762 15.0627 1.17581C14.6681 1.07543 14.2509 1.10693 13.8763 1.26539C13.5017 1.42386 13.1908 1.70036 12.9922 2.0517C12.9437 2.13865 12.8724 2.21114 12.7858 2.26163C12.6993 2.31212 12.6005 2.33876 12.5 2.33876C12.3995 2.33876 12.3008 2.31212 12.2142 2.26163C12.1276 2.21114 12.0564 2.13865 12.0078 2.0517C11.8462 1.77 11.6115 1.53594 11.3277 1.37362C11.044 1.21131 10.7216 1.12662 10.3936 1.12828ZM5.51715 23C5.36716 22.9999 5.22336 22.9409 5.11737 22.8362L0.165446 17.9472C0.0595053 17.8425 0 17.7006 0 17.5525C0 17.4045 0.0595053 17.2626 0.165446 17.1579L4.83828 12.5445C5.44754 11.9396 6.17222 11.46 6.97041 11.1334C7.76861 10.8068 8.62447 10.6397 9.48849 10.6418H15.1193C15.2683 10.6418 15.4113 10.7002 15.5166 10.8043C15.622 10.9083 15.6812 11.0494 15.6812 11.1966V11.6806C15.6802 12.4506 15.37 13.1887 14.8185 13.7332C14.267 14.2776 13.5194 14.584 12.7395 14.5849H10.6463C10.5896 14.5859 10.5355 14.6086 10.4954 14.6482C10.4553 14.6878 10.4323 14.7412 10.4314 14.7972C10.4314 14.8535 10.454 14.9074 10.4943 14.9472C10.5346 14.9871 10.5893 15.0094 10.6463 15.0094H14.3537C14.7313 15.0108 15.1055 14.9381 15.4545 14.7956C15.8034 14.6531 16.1202 14.4435 16.3865 14.1791L20.0033 10.7944C20.6451 10.1639 21.5136 9.80995 22.4189 9.80995C23.3243 9.80995 24.1928 10.1639 24.8346 10.7944C24.9405 10.8992 25 11.0411 25 11.1891C25 11.3371 24.9405 11.4791 24.8346 11.5838L18.6833 17.668C18.2129 18.1348 17.6533 18.5048 17.037 18.7567C16.4207 19.0085 15.7599 19.1371 15.0929 19.135H10.3672C9.91929 19.1362 9.48981 19.3114 9.17169 19.6228L5.91315 22.8362C5.80832 22.9404 5.66591 22.9993 5.51715 23ZM1.36854 17.5525L5.51715 21.6484L8.38345 18.8371C8.64435 18.577 8.95519 18.3709 9.29777 18.2309C9.64035 18.0909 10.0078 18.0198 10.3786 18.0217H15.0929C15.6116 18.0234 16.1255 17.9232 16.6046 17.727C17.0838 17.5307 17.5186 17.2423 17.8838 16.8786L23.59 11.2487C23.1502 10.9913 22.6362 10.8857 22.1289 10.9484C21.6216 11.0111 21.1498 11.2385 20.7878 11.595L17.171 14.9759C16.8017 15.3418 16.3625 15.6316 15.8789 15.8284C15.3952 16.0253 14.8768 16.1254 14.3537 16.1227H10.6463C10.2902 16.1227 9.94873 15.9831 9.69694 15.7345C9.44515 15.4859 9.30369 15.1487 9.30369 14.7972C9.30369 14.4456 9.44515 14.1085 9.69694 13.8599C9.94873 13.6113 10.2902 13.4716 10.6463 13.4716H12.747C13.2141 13.4711 13.6629 13.2927 14.0002 12.9737C14.3374 12.6547 14.5369 12.2195 14.5573 11.7588H9.48849C8.77223 11.7574 8.06279 11.8963 7.4012 12.1673C6.73961 12.4382 6.13899 12.836 5.63406 13.3376L1.36854 17.5525Z" fill="#3927CE"/>
</svg>
