<svg width="51" height="58" viewBox="0 0 51 58" fill="none" xmlns="http://www.w3.org/2000/svg">
<path d="M25.0775 13.8543C22.935 11.6255 19.3914 11.5556 17.1626 13.6981L14.9338 15.8405C12.7051 17.9831 12.6352 21.5267 14.7776 23.7555L36.4268 46.2761C38.5692 48.5049 42.1129 48.5748 44.3417 46.4323L46.5704 44.2898C48.7991 42.1472 48.869 38.6036 46.7266 36.3749L25.0775 13.8543ZM17.468 21.1692C16.754 20.4263 16.7773 19.2451 17.5201 18.5309L19.7489 16.3884C20.4917 15.6742 21.673 15.6976 22.3871 16.4405L25.8228 20.0144L20.9036 24.7432L17.468 21.1692ZM43.9842 41.5994L41.7554 43.742C41.0125 44.4561 39.8313 44.4328 39.1172 43.6899L23.4898 27.4335L28.409 22.7048L44.0363 38.9611C44.7504 39.704 44.7271 40.8853 43.9842 41.5994Z" fill="#C445A6"/>
<path d="M20.196 38.3473C20.8656 36.9674 22.9468 37.4981 22.8739 39.0302C22.7115 42.4094 24.5846 45.5627 27.6347 47.0399C29.0143 47.7109 28.4829 49.7949 26.9504 49.7234C23.5654 49.5597 20.411 51.431 18.9355 54.4753C18.2658 55.8553 16.1846 55.3246 16.2576 53.7925C16.42 50.4133 14.5468 47.26 11.4968 45.7828C10.1166 45.1116 10.648 43.0276 12.1811 43.0993C15.5661 43.263 18.7204 41.3917 20.196 38.3473Z" fill="url(#paint0_linear_2983_1767)"/>
<path d="M5.54934 29.7549C5.16069 29.7596 4.78811 29.4654 4.70133 29.0866C4.36978 27.5603 3.17208 26.3909 1.64712 26.0978C1.26244 26.0241 0.955515 25.6577 0.95082 25.2651C0.94609 24.8696 1.24806 24.494 1.63482 24.414C3.14452 24.0865 4.31391 22.8888 4.60699 21.3639C4.60792 21.359 4.60881 21.355 4.60975 21.3501C4.68939 20.9713 5.053 20.6722 5.44066 20.6676C5.82733 20.663 6.19799 20.9532 6.28667 21.3301C6.61928 22.8613 7.81692 24.0307 9.34188 24.3237C9.72656 24.3975 10.0335 24.7639 10.0382 25.1564C10.0429 25.5519 9.74094 25.9276 9.35418 26.0076C7.84448 26.335 6.67509 27.5327 6.38201 29.0576C6.30829 29.4423 5.94092 29.7503 5.54934 29.7549ZM3.86607 25.2312C4.52211 25.6454 5.08378 26.1928 5.51346 26.8377C5.92759 26.1827 6.47604 25.62 7.12294 25.1903C6.46595 24.7762 5.90423 24.2288 5.47553 23.5828C5.06041 24.2389 4.51201 24.8005 3.86607 25.2312Z" fill="url(#paint1_linear_2983_1767)"/>
<path d="M50.2293 31.1839C50.4254 32.3799 49.6148 33.5085 48.4188 33.7046C47.2228 33.9007 46.0942 33.0902 45.8981 31.8941C45.702 30.6981 46.5125 29.5695 47.7086 29.3734C48.9046 29.1772 50.0332 29.9879 50.2293 31.1839Z" fill="url(#paint2_linear_2983_1767)"/>
<path d="M9.22363 9.95829C13.1961 5.85129 20.9082 0.197211 31.4433 3.21113C37.2309 4.60169 46.4853 9.56294 48.0135 22.86" stroke="#FFE100" stroke-width="3.17778" stroke-linecap="round" stroke-linejoin="round"/>
<defs>
<linearGradient id="paint0_linear_2983_1767" x1="10.699" y1="44.1746" x2="28.3371" y2="48.6723" gradientUnits="userSpaceOnUse">
<stop stop-color="#B38FFF"/>
<stop offset="0.5" stop-color="#8D87FE"/>
<stop offset="1" stop-color="#6780FE"/>
</linearGradient>
<linearGradient id="paint1_linear_2983_1767" x1="0.943381" y1="25.238" x2="10.0307" y2="25.1293" gradientUnits="userSpaceOnUse">
<stop stop-color="#B38FFF"/>
<stop offset="0.5" stop-color="#8D87FE"/>
<stop offset="1" stop-color="#6780FE"/>
</linearGradient>
<linearGradient id="paint2_linear_2983_1767" x1="45.8851" y1="31.8558" x2="50.2164" y2="31.1456" gradientUnits="userSpaceOnUse">
<stop stop-color="#B38FFF"/>
<stop offset="0.5" stop-color="#8D87FE"/>
<stop offset="1" stop-color="#6780FE"/>
</linearGradient>
</defs>
</svg>
