<svg width="22" height="23" viewBox="0 0 22 23" fill="none" xmlns="http://www.w3.org/2000/svg">
<path fill-rule="evenodd" clip-rule="evenodd" d="M5.17177 10.5925H1.85356C1.37258 10.5945 0.982611 10.9689 0.980545 11.4331V21.2113C0.982614 21.6755 1.37258 22.0508 1.85356 22.0518H5.17177C5.65275 22.0508 6.04169 21.6755 6.04272 21.2113V11.4331C6.03962 10.9699 5.65172 10.5955 5.17177 10.5925ZM7.02536 11.7985V20.6053H8.39488C9.10756 20.5993 9.81198 20.761 10.4471 21.0754C10.745 21.2172 11.0605 21.321 11.3863 21.3849C11.7897 21.4668 12.1983 21.5167 12.61 21.5356H18.4117C18.9662 21.5356 19.4492 21.1723 19.5857 20.6542C19.7223 20.1361 19.4782 19.594 18.992 19.3384C18.7893 19.2466 18.6776 19.035 18.7189 18.8233C18.7593 18.6117 18.9434 18.453 19.1668 18.438C19.9157 18.3841 20.6739 17.296 20.1443 16.4674L20.1433 16.4684C20.0264 16.2857 19.8609 16.137 19.6644 16.0392C19.4616 15.9463 19.3499 15.7337 19.3923 15.5211C19.4347 15.3094 19.6209 15.1517 19.8443 15.1387C20.6232 15.0928 21.3773 14.0017 20.8373 13.1711C20.7142 12.9835 20.5394 12.8327 20.3315 12.7369C20.166 12.66 20.0585 12.5003 20.0533 12.3236C20.0491 12.1459 20.1464 11.9812 20.3077 11.8963C20.6863 11.6997 21.0173 10.938 21.0173 10.5057C21.0163 9.85985 20.4743 9.33675 19.805 9.33575H15.9117C15.7348 9.33475 15.5714 9.24091 15.4855 9.09117C15.3997 8.94043 15.4048 8.75774 15.499 8.612C16.3647 7.26533 17.3526 4.48217 16.9161 2.63933C16.763 1.74886 16.011 1.06606 15.0811 0.973215C14.4398 0.876381 14.1005 1.07304 13.9102 1.44339C13.6609 1.92655 13.6029 2.68526 13.5978 3.53379C13.6029 4.05089 13.4085 4.55104 13.0527 4.93737C11.8269 6.29901 10.6695 7.54381 9.43867 8.77075H9.43764C9.26697 8.93846 9.12422 9.13214 9.01666 9.34277C8.54394 10.2901 7.86436 11.1277 7.0255 11.7995L7.02536 11.7985ZM1.85356 9.64417H5.17177C5.89377 9.64517 6.54955 10.0495 6.85367 10.6824C7.37914 10.1633 7.8146 9.5663 8.1425 8.91343C8.29662 8.61593 8.49728 8.3434 8.7383 8.10581C9.90922 6.94082 11.1505 5.62208 12.3213 4.32124C12.5251 4.10561 12.6358 3.8231 12.6316 3.53161C12.6316 2.5553 12.7133 1.66583 13.0423 1.02494C13.4291 0.271242 14.1015 -0.135071 15.2403 0.0406255C16.6543 0.255254 17.5522 1.09381 17.8883 2.4245C18.3414 4.28229 17.5811 6.78894 16.7629 8.38618L19.802 8.38718C21.0133 8.39018 21.9939 9.33653 21.997 10.5055C21.968 11.1454 21.7332 11.7614 21.3246 12.2665C22.2276 13.102 22.2038 14.4188 21.3805 15.3332C21.2274 15.5059 21.0484 15.6566 20.8509 15.7804C21.5149 16.636 21.4518 17.8279 20.7019 18.6146C20.5499 18.7933 20.372 18.949 20.1723 19.0768C20.6885 19.7197 20.7775 20.5892 20.402 21.3169C20.0265 22.0437 19.2538 22.4989 18.4118 22.4889H12.5624C12.0959 22.4689 11.6315 22.413 11.1753 22.3202C10.7699 22.2383 10.3778 22.1085 10.0075 21.9318C9.50893 21.6833 8.95552 21.5565 8.39492 21.5635H6.99127C6.81646 22.4 6.05515 23.001 5.1718 23H1.8536C0.830597 23 0 22.1994 0 21.2111V11.4329C0 10.4456 0.830563 9.64417 1.85356 9.64417Z" fill="#3927CE"/>
</svg>
