<svg width="80" height="80" viewBox="0 0 80 80" fill="none" xmlns="http://www.w3.org/2000/svg">
<path d="M63.5296 9.41172H56.066C55.0948 6.67328 52.4793 4.70578 49.412 4.70578H46.6559C45.6848 1.96688 43.0679 0 40.0002 0C36.9326 0 34.3157 1.96687 33.3446 4.70594H30.5885C27.521 4.70594 24.9057 6.67328 23.9345 9.41187H16.4709C12.5787 9.41187 9.41211 12.5784 9.41211 16.4706V72.9413C9.41211 76.8334 12.5787 80 16.4709 80H63.5298C67.422 80 70.5885 76.8334 70.5885 72.9413V16.4706C70.5885 12.5783 67.422 9.41172 63.5296 9.41172ZM28.2355 11.7647C28.2355 10.4673 29.291 9.41172 30.5885 9.41172H35.2945C36.5938 9.41172 37.6474 8.35828 37.6474 7.05875C37.6474 5.76141 38.7029 4.70578 40.0004 4.70578C41.2977 4.70578 42.3534 5.76125 42.3534 7.05875C42.3534 8.35828 43.4068 9.41172 44.7063 9.41172H49.4123C50.7096 9.41172 51.7652 10.4672 51.7652 11.7647V14.1177H28.2355V11.7647ZM65.8826 72.9413C65.8826 74.2386 64.8271 75.2942 63.5296 75.2942H16.4709C15.1735 75.2942 14.1179 74.2388 14.1179 72.9413V16.4706C14.1179 15.1733 15.1734 14.1177 16.4709 14.1177H23.5298V16.4706C23.5298 17.7702 24.5832 18.8236 25.8827 18.8236H54.118C55.4174 18.8236 56.471 17.7702 56.471 16.4706V14.1177H63.5298C64.8271 14.1177 65.8827 15.1731 65.8827 16.4706V72.9413H65.8826Z" fill="#3927CE"/>
<path d="M32.9405 28.2354H23.5288C22.2294 28.2354 21.1758 29.2888 21.1758 30.5883C21.1758 31.8879 22.2292 32.9413 23.5288 32.9413H32.9405C34.2398 32.9413 35.2934 31.8879 35.2934 30.5883C35.2934 29.2888 34.2398 28.2354 32.9405 28.2354Z" fill="#3927CE"/>
<path d="M32.9405 44.7061H23.5288C22.2294 44.7061 21.1758 45.7595 21.1758 47.059C21.1758 48.3584 22.2292 49.412 23.5288 49.412H32.9405C34.2398 49.412 35.2934 48.3586 35.2934 47.059C35.2933 45.7595 34.2398 44.7061 32.9405 44.7061Z" fill="#3927CE"/>
<path d="M32.9405 61.1768H23.5288C22.2294 61.1768 21.1758 62.2302 21.1758 63.5297C21.1758 64.8293 22.2292 65.8827 23.5288 65.8827H32.9405C34.2398 65.8827 35.2934 64.8293 35.2934 63.5297C35.2934 62.2302 34.2398 61.1768 32.9405 61.1768Z" fill="#3927CE"/>
<path d="M58.1349 26.571C57.2161 25.6521 55.7263 25.6521 54.8075 26.5712L49.4124 31.9662L46.3702 28.9241C45.4514 28.0052 43.9616 28.0052 43.0427 28.9241C42.1238 29.843 42.1238 31.3327 43.0427 32.2516L47.7486 36.9576C48.2082 37.4169 48.8104 37.6466 49.4125 37.6466C50.0147 37.6466 50.6169 37.4169 51.0763 36.9574L58.1352 29.8987C59.0538 28.9797 59.0538 27.4899 58.1349 26.571Z" fill="#3927CE"/>
<path d="M58.1349 40.6892C57.2161 39.7703 55.7263 39.7703 54.8075 40.6893L49.4124 46.0843L46.3702 43.0423C45.4514 42.1234 43.9616 42.1234 43.0427 43.0423C42.1238 43.9612 42.1238 45.4509 43.0427 46.3698L47.7486 51.0757C48.2082 51.5351 48.8104 51.7648 49.4125 51.7648C50.0147 51.7648 50.6169 51.5351 51.0763 51.0756L58.1352 44.0168C59.0538 43.0978 59.0538 41.6081 58.1349 40.6892Z" fill="#3927CE"/>
<path d="M52.7399 63.5296L55.7821 60.4874C56.7008 59.5686 56.7008 58.0788 55.7819 57.16C54.8632 56.2411 53.3733 56.2411 52.4544 57.16L49.4124 60.2021L46.3702 57.1599C45.4514 56.241 43.9616 56.241 43.0427 57.1599C42.1238 58.0788 42.1238 59.5685 43.0427 60.4874L46.0849 63.5296L43.0427 66.5718C42.1238 67.4907 42.1238 68.9804 43.0427 69.8993C43.5021 70.3586 44.1044 70.5883 44.7066 70.5883C45.3088 70.5883 45.911 70.3586 46.3704 69.8991L49.4125 66.8571L52.4547 69.8993C52.9139 70.3586 53.5163 70.5883 54.1185 70.5883C54.7207 70.5883 55.3229 70.3586 55.7822 69.8991C56.7011 68.9802 56.7011 67.4905 55.7822 66.5716L52.7399 63.5296Z" fill="#3927CE"/>
</svg>
