<svg width="80" height="80" viewBox="0 0 80 80" fill="none" xmlns="http://www.w3.org/2000/svg">
<path fill-rule="evenodd" clip-rule="evenodd" d="M12.6416 53.4188C12.541 53.518 12.5 53.63 12.5 53.7334V56.7C12.5 60.183 15.3775 63.0668 19 63.0668H34C35.3808 63.0668 36.5 64.186 36.5 65.5668C36.5 66.9474 35.3808 68.0668 34 68.0668H19C12.6893 68.0668 7.5 63.017 7.5 56.7V53.7334C7.5 50.6832 10.0224 48.2668 13 48.2668H23.7666C25.2554 48.2668 26.6222 48.88 27.6134 49.8128L27.6536 49.8516L31.9012 54.0322C31.9734 54.1044 32.0926 54.1666 32.2666 54.1666H34C35.3808 54.1666 36.5 55.286 36.5 56.6666C36.5 58.0474 35.3808 59.1666 34 59.1666H32.2666C30.8444 59.1666 29.434 58.6316 28.3738 57.5758L24.1732 53.4414C24.034 53.3168 23.8744 53.2668 23.7666 53.2668H13C12.8729 53.2668 12.744 53.318 12.6416 53.4188Z" fill="#3927CE"/>
<path fill-rule="evenodd" clip-rule="evenodd" d="M23.7666 12.5C19.6976 12.5 17 15.3063 17 18.0333V50.1666C17 51.5474 15.8807 52.6666 14.5 52.6666C13.1193 52.6666 12 51.5474 12 50.1666V18.0333C12 11.8938 17.6357 7.5 23.7666 7.5H54.7C60.8706 7.5 66.4666 11.8991 66.4666 18.0333V28.6C66.4666 29.9806 65.3474 31.1 63.9666 31.1C62.586 31.1 61.4666 29.9806 61.4666 28.6V18.0333C61.4666 15.3009 58.7962 12.5 54.7 12.5H23.7666Z" fill="#3927CE"/>
<path fill-rule="evenodd" clip-rule="evenodd" d="M49.6666 31.0996C47.3654 31.0996 45.5 32.965 45.5 35.2662V63.333C45.5 65.6342 47.3654 67.4996 49.6666 67.4996H63.3334C65.6346 67.4996 67.5 65.6342 67.5 63.333V35.2662C67.5 32.965 65.6346 31.0996 63.3334 31.0996H49.6666ZM40.5 35.2662C40.5 30.2036 44.604 26.0996 49.6666 26.0996H63.3334C68.396 26.0996 72.5 30.2036 72.5 35.2662V63.333C72.5 68.3956 68.396 72.4996 63.3334 72.4996H49.6666C44.604 72.4996 40.5 68.3956 40.5 63.333V35.2662Z" fill="#3927CE"/>
<path fill-rule="evenodd" clip-rule="evenodd" d="M52.5 61.1338C52.5 59.753 53.6192 58.6338 55 58.6338H58C59.3806 58.6338 60.5 59.753 60.5 61.1338C60.5 62.5144 59.3806 63.6338 58 63.6338H55C53.6192 63.6338 52.5 62.5144 52.5 61.1338Z" fill="#3927CE"/>
</svg>
