<svg width="80" height="80" viewBox="0 0 80 80" fill="none" xmlns="http://www.w3.org/2000/svg">
<path d="M19.9993 10.0003C21.8327 10.0003 23.3327 11.5003 23.3327 13.3337V50.0003C23.3327 51.8337 21.8327 53.3337 19.9993 53.3337H13.3327C11.4993 53.3337 9.99935 51.8337 9.99935 50.0003V13.3337C9.99935 11.5003 11.4993 10.0003 13.3327 10.0003H19.9993ZM19.9993 6.66699H13.3327C9.66602 6.66699 6.66602 9.66699 6.66602 13.3337V50.0003C6.66602 53.667 9.66602 56.667 13.3327 56.667H19.9993C23.666 56.667 26.666 53.667 26.666 50.0003V13.3337C26.666 9.66699 23.666 6.66699 19.9993 6.66699Z" fill="#3927CE"/>
<path d="M36.6673 10.0003C38.5007 10.0003 40.0007 11.5003 40.0007 13.3337V50.0003C40.0007 51.8337 38.5007 53.3337 36.6673 53.3337H30.0007C28.1673 53.3337 26.6673 51.8337 26.6673 50.0003V13.3337C26.6673 11.5003 28.1673 10.0003 30.0007 10.0003H36.6673ZM36.6673 6.66699H30.0007C26.334 6.66699 23.334 9.66699 23.334 13.3337V50.0003C23.334 53.667 26.334 56.667 30.0007 56.667H36.6673C40.334 56.667 43.334 53.667 43.334 50.0003V13.3337C43.334 9.66699 40.334 6.66699 36.6673 6.66699Z" fill="#3927CE"/>
<path d="M53.1337 10.0335C54.5004 10.0335 55.7337 10.9002 56.2337 12.1669L69.5004 46.3669C69.8337 47.2002 69.8004 48.1002 69.4337 48.9335C69.0671 49.7335 68.4337 50.3669 67.6004 50.7002L61.4004 53.1002C61.0004 53.2669 60.6004 53.3335 60.2004 53.3335C58.8004 53.3335 57.6004 52.5002 57.1004 51.2002L43.8337 17.0002C43.5004 16.1669 43.5337 15.2669 43.9004 14.4335C44.2671 13.6335 44.9004 13.0002 45.7337 12.6669L51.9337 10.2669C52.3337 10.1002 52.7337 10.0335 53.1337 10.0335ZM53.1337 6.7002C52.3337 6.7002 51.5004 6.83353 50.7337 7.16686L44.5337 9.56686C41.1004 10.9002 39.4004 14.7669 40.7337 18.2002L54.0004 52.4002C55.0337 55.0335 57.5337 56.6669 60.2337 56.6669C61.0337 56.6669 61.8671 56.5335 62.6337 56.2002L68.8337 53.8002C72.2671 52.4669 73.9671 48.6002 72.6337 45.1669L59.3671 10.9669C58.3337 8.33353 55.8337 6.7002 53.1337 6.7002Z" fill="#3927CE"/>
<path d="M66.666 56.6663C68.4993 56.6663 69.9993 58.1663 69.9993 59.9997V66.6663C69.9993 68.4997 68.4993 69.9997 66.666 69.9997H13.3327C11.4993 69.9997 9.99935 68.4997 9.99935 66.6663V59.9997C9.99935 58.1663 11.4993 56.6663 13.3327 56.6663H66.666ZM66.666 53.333H13.3327C9.66602 53.333 6.66602 56.333 6.66602 59.9997V66.6663C6.66602 70.333 9.66602 73.333 13.3327 73.333H66.666C70.3327 73.333 73.3327 70.333 73.3327 66.6663V59.9997C73.3327 56.333 70.3327 53.333 66.666 53.333Z" fill="#3927CE"/>
</svg>
