<svg width="80" height="80" viewBox="0 0 80 80" fill="none" xmlns="http://www.w3.org/2000/svg">
<g clip-path="url(#clip0_2088_3619)">
<path d="M76.25 75V31.25C76.25 30.587 75.9866 29.9511 75.5178 29.4822C75.0489 29.0134 74.413 28.75 73.75 28.75H58.75C58.087 28.75 57.4511 29.0134 56.9822 29.4822C56.5134 29.9511 56.25 30.587 56.25 31.25V75H50V41.25C50 40.587 49.7366 39.9511 49.2678 39.4822C48.7989 39.0134 48.163 38.75 47.5 38.75H32.5C31.837 38.75 31.2011 39.0134 30.7322 39.4822C30.2634 39.9511 30 40.587 30 41.25V75H23.75V48.75C23.75 48.087 23.4866 47.4511 23.0178 46.9822C22.5489 46.5134 21.913 46.25 21.25 46.25H6.25C5.58696 46.25 4.95107 46.5134 4.48223 46.9822C4.01339 47.4511 3.75 48.087 3.75 48.75V75H0V80H80V75H76.25ZM8.75 75V51.25H18.75V75H8.75ZM35 75V43.75H45V75H35ZM61.25 75V33.75H71.25V75H61.25Z" fill="#3927CE"/>
<path d="M69.3594 8.71243L70.0131 15.2487L74.9881 14.7512L73.7381 2.25118C73.6726 1.59517 73.3505 0.991617 72.8421 0.571889C72.3338 0.152162 71.6801 -0.0497584 71.0236 0.0100826L57.2736 1.26008L57.7267 6.23977L65.4941 5.53352C61.4803 10.2571 54.5513 16.5196 45.1377 22.0648C36.0875 27.3954 21.7777 33.7499 5 33.7499V38.7499C22.9044 38.7499 38.0892 32.0191 47.6752 26.3727C57.6458 20.4999 64.9688 13.9096 69.3594 8.71243Z" fill="#3927CE"/>
</g>
<defs>
<clipPath id="clip0_2088_3619">
<rect width="80" height="80" fill="white"/>
</clipPath>
</defs>
</svg>
