<svg width="80" height="80" viewBox="0 0 80 80" fill="none" xmlns="http://www.w3.org/2000/svg">
<path d="M50.0742 35.21C50.0742 33.9675 49.0667 32.96 47.8242 32.96H23.0742C21.8317 32.96 20.8242 33.9675 20.8242 35.21C20.8242 36.4525 21.8317 37.46 23.0742 37.46H47.8242C49.0667 37.46 50.0742 36.4525 50.0742 35.21Z" fill="#3927CE"/>
<path d="M23.0703 44.3223C21.8278 44.3223 20.8203 45.3298 20.8203 46.5723C20.8203 47.8148 21.8278 48.8223 23.0703 48.8223H36.1928C37.4353 48.8223 38.4428 47.8148 38.4428 46.5723C38.4428 45.3298 37.4353 44.3223 36.1928 44.3223H23.0703Z" fill="#3927CE"/>
<path d="M64.9 35.3344C63.6575 35.3344 62.65 36.3419 62.65 37.5844V55.7819C62.65 59.1869 59.88 61.9569 56.475 61.9569H41.425C40.9375 61.9569 40.4625 62.1144 40.0725 62.4094L27.0775 72.1819C26.7475 72.4294 26.4375 72.3269 26.2825 72.2419C26.125 72.1619 25.865 71.9644 25.875 71.5619L26.125 64.2869C26.145 63.6769 25.9175 63.0844 25.495 62.6469C25.0725 62.2069 24.4875 61.9594 23.8775 61.9594H13.425C10.02 61.9594 7.25 59.1919 7.25 55.7844V26.0344C7.25 22.6169 10.02 19.8369 13.425 19.8369H41.15C42.3925 19.8369 43.4 18.8294 43.4 17.5869C43.4 16.3444 42.3925 15.3369 41.15 15.3369H13.425C7.54 15.3369 2.75 20.1369 2.75 26.0369V55.7844C2.75 61.6694 7.54 66.4619 13.425 66.4619H21.5475L21.3775 71.4169C21.3175 73.4519 22.4 75.3019 24.2075 76.2394C24.98 76.6419 25.8125 76.8394 26.6375 76.8394C27.745 76.8394 28.8425 76.4819 29.7775 75.7844L42.175 66.4619H56.4725C62.3575 66.4619 67.1475 61.6719 67.1475 55.7844V37.5869C67.15 36.3419 66.1425 35.3344 64.9 35.3344Z" fill="#3927CE"/>
<path d="M77.0623 13.9024C76.6548 12.6524 75.6523 11.7174 74.3798 11.4024L68.6298 9.96988L65.4898 4.94488C64.0973 2.70988 60.4623 2.71488 59.0723 4.94488L55.9323 9.96988L50.1823 11.4024C48.9098 11.7174 47.9048 12.6524 47.4998 13.9024C47.0948 15.1524 47.3548 16.4999 48.1998 17.5074L52.0098 22.0424L51.5948 27.9524C51.5023 29.2624 52.0823 30.5049 53.1448 31.2774C53.8048 31.7574 54.5798 32.0049 55.3648 32.0049C55.8423 32.0049 56.3248 31.9124 56.7873 31.7249L62.2823 29.5049L67.7748 31.7249C68.9923 32.2199 70.3523 32.0499 71.4173 31.2799C72.4798 30.5074 73.0598 29.2649 72.9698 27.9524L72.5548 22.0424L76.3648 17.5049C77.2073 16.4999 77.4698 15.1524 77.0623 13.9024ZM68.5223 19.8449C68.1473 20.2924 67.9598 20.8674 68.0023 21.4524L68.4023 27.1274L63.1273 24.9949C62.8573 24.8849 62.5698 24.8299 62.2848 24.8299C61.9998 24.8299 61.7123 24.8849 61.4423 24.9949L56.1698 27.1274L56.5673 21.4524C56.6073 20.8699 56.4198 20.2924 56.0473 19.8449L52.3898 15.4899L57.9098 14.1124C58.4748 13.9699 58.9648 13.6174 59.2723 13.1224L62.2873 8.29988L65.3023 13.1224C65.6123 13.6174 66.0998 13.9724 66.6648 14.1124L72.1848 15.4899L68.5223 19.8449Z" fill="#3927CE"/>
</svg>
