<svg width="21" height="20" viewBox="0 0 21 20" fill="none" xmlns="http://www.w3.org/2000/svg">
<path d="M10.5 1.80723C13.1506 1.80723 13.5121 1.80723 14.5964 1.80723C15.5602 1.80723 16.0422 2.04819 16.4036 2.16868C16.8855 2.40964 17.247 2.53012 17.6084 2.89157C17.9699 3.25301 18.2108 3.61446 18.3313 4.09639C18.4518 4.45783 18.5723 4.93976 18.6928 5.90362C18.6928 6.98795 18.6928 7.22892 18.6928 10C18.6928 12.7711 18.6928 13.0121 18.6928 14.0964C18.6928 15.0602 18.4518 15.5422 18.3313 15.9036C18.0904 16.3855 17.9699 16.747 17.6084 17.1084C17.247 17.4699 16.8855 17.7108 16.4036 17.8313C16.0422 17.9518 15.5602 18.0723 14.5964 18.1928C13.5121 18.1928 13.2711 18.1928 10.5 18.1928C7.72892 18.1928 7.48795 18.1928 6.40362 18.1928C5.43976 18.1928 4.95783 17.9518 4.59639 17.8313C4.11446 17.5904 3.75301 17.4699 3.39157 17.1084C3.03012 16.747 2.78916 16.3855 2.66868 15.9036C2.54819 15.5422 2.42771 15.0602 2.30723 14.0964C2.30723 13.0121 2.30723 12.7711 2.30723 10C2.30723 7.22892 2.30723 6.98795 2.30723 5.90362C2.30723 4.93976 2.54819 4.45783 2.66868 4.09639C2.90964 3.61446 3.03012 3.25301 3.39157 2.89157C3.75301 2.53012 4.11446 2.28916 4.59639 2.16868C4.95783 2.04819 5.43976 1.92771 6.40362 1.80723C7.48795 1.80723 7.8494 1.80723 10.5 1.80723ZM10.5 0C7.72892 0 7.48795 0 6.40362 0C5.31928 0 4.59639 0.240965 3.99398 0.481928C3.39157 0.722892 2.78916 1.08434 2.18675 1.68675C1.58434 2.28916 1.34337 2.77109 0.981928 3.49398C0.740965 4.09639 0.620482 4.81928 0.5 5.90362C0.5 6.98795 0.5 7.3494 0.5 10C0.5 12.7711 0.5 13.0121 0.5 14.0964C0.5 15.1807 0.740965 15.9036 0.981928 16.506C1.22289 17.1084 1.58434 17.7108 2.18675 18.3133C2.78916 18.9157 3.27109 19.1566 3.99398 19.5181C4.59639 19.759 5.31928 19.8795 6.40362 20C7.48795 20 7.8494 20 10.5 20C13.1506 20 13.5121 20 14.5964 20C15.6807 20 16.4036 19.759 17.006 19.5181C17.6084 19.2771 18.2108 18.9157 18.8133 18.3133C19.4157 17.7108 19.6566 17.2289 20.0181 16.506C20.259 15.9036 20.3795 15.1807 20.5 14.0964C20.5 13.0121 20.5 12.6506 20.5 10C20.5 7.3494 20.5 6.98795 20.5 5.90362C20.5 4.81928 20.259 4.09639 20.0181 3.49398C19.7771 2.89157 19.4157 2.28916 18.8133 1.68675C18.2108 1.08434 17.7289 0.843374 17.006 0.481928C16.4036 0.240965 15.6807 0.120482 14.5964 0C13.5121 0 13.2711 0 10.5 0Z" fill="white"/>
<path d="M10.5 4.81928C7.60843 4.81928 5.31928 7.10843 5.31928 10C5.31928 12.8916 7.60843 15.1807 10.5 15.1807C13.3916 15.1807 15.6807 12.8916 15.6807 10C15.6807 7.10843 13.3916 4.81928 10.5 4.81928ZM10.5 13.3735C8.69277 13.3735 7.12651 11.9277 7.12651 10C7.12651 8.19277 8.57229 6.62651 10.5 6.62651C12.3072 6.62651 13.8735 8.07229 13.8735 10C13.8735 11.8072 12.3072 13.3735 10.5 13.3735Z" fill="white"/>
<path d="M15.8012 5.90362C16.4666 5.90362 17.006 5.3642 17.006 4.6988C17.006 4.03339 16.4666 3.49398 15.8012 3.49398C15.1358 3.49398 14.5964 4.03339 14.5964 4.6988C14.5964 5.3642 15.1358 5.90362 15.8012 5.90362Z" fill="white"/>
</svg>
