<svg width="21" height="17" viewBox="0 0 21 17" fill="none" xmlns="http://www.w3.org/2000/svg">
<path d="M20.5 1.875C19.75 2.25 19 2.375 18.125 2.5C19 2 19.625 1.25 19.875 0.25C19.125 0.75 18.25 1 17.25 1.25C16.5 0.5 15.375 0 14.25 0C11.625 0 9.625 2.5 10.25 5C6.875 4.875 3.875 3.25 1.75 0.75C0.625 2.625 1.25 5 3 6.25C2.375 6.25 1.75 6 1.125 5.75C1.125 7.625 2.5 9.375 4.375 9.875C3.75 10 3.125 10.125 2.5 10C3 11.625 4.5 12.875 6.375 12.875C4.875 14 2.625 14.625 0.5 14.375C2.375 15.5 4.5 16.25 6.75 16.25C14.375 16.25 18.625 9.875 18.375 4C19.25 3.5 20 2.75 20.5 1.875Z" fill="white"/>
</svg>
